<svg data-v-423bf9ae="" xmlns="http://www.w3.org/2000/svg" viewBox="0 0 395 90" class="iconLeft"><!----><!----><defs data-v-423bf9ae=""><linearGradient data-v-423bf9ae="" gradientTransform="rotate(25)" id="4a280168-61eb-4932-89be-7a087daa88b5" x1="0%" y1="0%" x2="100%" y2="0%"><stop data-v-423bf9ae="" offset="0%" style="stop-color: rgb(252, 183, 0); stop-opacity: 1;"></stop><stop data-v-423bf9ae="" offset="100%" style="stop-color: rgb(198, 198, 198); stop-opacity: 1;"></stop></linearGradient></defs><g data-v-423bf9ae="" id="804ae72d-2f2f-4ee2-be49-24f6693d7d65" fill="url(#4a280168-61eb-4932-89be-7a087daa88b5)" transform="matrix(6.1349687576293945,0,0,6.1349687576293945,134.04144287109375,-3.8343515396118164)"><path d="M0.45 11.90C0.45 12.39 1.40 12.81 2.25 12.81C3.30 12.81 4.27 12.17 4.27 11.12C4.27 10.25 3.30 9.83 2.51 9.45C1.90 9.16 1.39 8.95 1.39 8.37C1.39 7.67 1.92 7.43 2.37 7.43C3.25 7.43 3.07 8.34 3.42 8.34C3.60 8.34 4.05 8.23 4.05 8.06C4.05 7.67 3.63 7.06 2.55 7.06C1.54 7.06 0.49 7.71 0.49 8.68C0.49 9.62 1.39 10.00 2.14 10.33C2.80 10.61 3.36 10.91 3.36 11.54C3.36 12.14 2.94 12.40 2.48 12.40C1.86 12.40 1.50 12.08 1.20 11.72C1.06 11.54 1.01 11.31 0.91 11.31C0.81 11.31 0.45 11.62 0.45 11.90ZM4.82 3.63C4.82 3.77 4.82 3.84 4.90 3.84C4.97 3.84 5.70 3.74 5.73 3.74C5.78 3.74 5.80 3.72 5.81 3.93C5.88 5.19 5.92 7.85 5.92 9.63C5.92 10.60 5.92 12.21 5.87 12.21L5.26 12.21C5.10 12.21 5.05 12.29 5.05 12.43C5.05 12.59 5.05 12.67 5.25 12.67C5.67 12.67 6.13 12.64 6.48 12.64C6.89 12.64 7.42 12.67 7.69 12.67C7.87 12.67 7.87 12.56 7.87 12.43C7.87 12.29 7.87 12.21 7.69 12.21L7.04 12.21C6.99 12.21 6.99 11.54 6.99 10.98C6.99 10.84 6.97 8.29 6.97 8.29C6.97 8.26 6.97 8.22 7.17 8.12C7.45 7.98 7.85 7.83 8.40 7.83C9.31 7.83 9.70 8.62 9.70 9.63C9.70 11.09 9.70 12.21 9.63 12.21L8.96 12.21C8.81 12.21 8.79 12.29 8.79 12.43C8.79 12.59 8.79 12.67 8.99 12.67C9.41 12.67 9.87 12.64 10.22 12.64C10.63 12.64 10.99 12.67 11.26 12.67C11.44 12.67 11.45 12.57 11.45 12.43C11.45 12.29 11.44 12.21 11.26 12.21L10.78 12.21C10.74 12.21 10.74 11.76 10.74 11.27L10.74 10.08C10.74 8.57 10.56 7.17 8.95 7.17C8.34 7.17 7.50 7.49 7.07 7.73C6.96 7.80 6.97 7.78 6.97 7.64C6.97 5.70 7.08 3.47 7.08 3.30C7.08 3.16 7.08 3.11 6.97 3.11C6.87 3.11 5.71 3.25 4.91 3.36C4.83 3.37 4.82 3.40 4.82 3.63ZM12.15 10.01C12.15 11.68 13.12 12.85 14.88 12.85C16.34 12.85 17.33 11.56 17.33 11.48C17.33 11.45 17.09 11.24 17.05 11.24C16.97 11.24 16.38 12.15 15.20 12.15C14.20 12.15 13.20 11.33 13.20 9.88C13.20 9.72 13.22 9.49 13.24 9.42C13.45 9.42 16.21 9.49 16.37 9.49C16.51 9.49 17.16 9.46 17.16 9.28C17.16 8.09 16.45 7.01 15.04 7.01C13.33 7.01 12.15 8.33 12.15 10.01ZM13.27 9.03C13.33 8.34 13.97 7.41 14.87 7.41C15.30 7.41 16.11 7.70 16.11 8.99C16.11 9.04 15.95 9.03 15.60 9.04C14.90 9.07 13.47 9.10 13.40 9.10C13.29 9.10 13.27 9.09 13.27 9.03ZM17.85 3.58C17.85 3.65 17.86 3.65 17.92 3.65C17.98 3.65 18.56 3.60 18.65 3.60C18.72 3.60 18.77 3.57 18.80 3.82C18.91 5.07 18.96 10.37 18.96 11.06C18.96 11.44 18.96 12.21 18.89 12.21L18.17 12.21C18.02 12.21 18.00 12.29 18.00 12.43C18.00 12.59 18.02 12.67 18.19 12.67C18.61 12.67 19.18 12.64 19.53 12.64C19.94 12.64 20.43 12.67 20.69 12.67C20.86 12.67 20.86 12.60 20.86 12.43C20.86 12.28 20.86 12.21 20.69 12.21L20.09 12.21C20.03 12.21 20.02 12.05 20.02 11.70C20.02 8.89 19.95 7.62 19.94 3.32C19.94 3.16 19.94 3.07 19.80 3.07C19.71 3.07 18.62 3.15 18.06 3.19C17.95 3.21 17.92 3.19 17.89 3.32C17.86 3.42 17.85 3.57 17.85 3.58ZM21.45 3.58C21.45 3.65 21.46 3.65 21.52 3.65C21.57 3.65 22.16 3.60 22.25 3.60C22.32 3.60 22.37 3.57 22.40 3.82C22.51 5.07 22.55 10.37 22.55 11.06C22.55 11.44 22.55 12.21 22.48 12.21L21.77 12.21C21.62 12.21 21.60 12.29 21.60 12.43C21.60 12.59 21.62 12.67 21.78 12.67C22.20 12.67 22.78 12.64 23.13 12.64C23.53 12.64 24.02 12.67 24.29 12.67C24.46 12.67 24.46 12.60 24.46 12.43C24.46 12.28 24.46 12.21 24.29 12.21L23.69 12.21C23.63 12.21 23.62 12.05 23.62 11.70C23.62 8.89 23.55 7.62 23.53 3.32C23.53 3.16 23.53 3.07 23.39 3.07C23.31 3.07 22.22 3.15 21.66 3.19C21.55 3.21 21.52 3.19 21.49 3.32C21.46 3.42 21.45 3.57 21.45 3.58ZM28.14 3.51C28.14 3.75 28.22 3.77 28.39 3.77L28.92 3.77C28.98 3.77 28.98 4.12 28.98 4.55C28.98 5.66 28.97 8.96 28.97 9.42C28.97 11.13 29.22 12.80 32.07 12.80C33.15 12.80 34.31 12.38 34.97 12.00C35.22 11.86 35.52 11.72 35.60 11.72C35.87 11.72 36.13 12.74 36.47 12.74C36.79 12.74 36.81 12.35 36.81 12.25C36.81 11.96 36.86 10.08 36.90 8.16C36.96 6.12 36.95 3.77 37.06 3.77L37.38 3.77C37.60 3.77 37.67 3.75 37.67 3.56C37.67 3.32 37.63 3.26 37.44 3.26C37.30 3.26 36.76 3.30 36.34 3.30C35.92 3.30 35.13 3.26 34.90 3.26C34.72 3.26 34.62 3.28 34.62 3.51C34.62 3.75 34.73 3.77 34.90 3.77L35.60 3.77C35.67 3.77 35.69 4.30 35.69 4.87L35.69 9.14C35.69 11.19 35.69 11.12 35.35 11.34C34.96 11.61 34.15 12.08 32.97 12.08C31.00 12.08 30.20 11.17 30.20 9.41C30.20 8.82 30.27 3.77 30.38 3.77L31.29 3.77C31.51 3.77 31.56 3.75 31.56 3.56C31.56 3.32 31.54 3.26 31.35 3.26C31.02 3.26 30.14 3.30 29.72 3.30C29.30 3.30 28.62 3.26 28.39 3.26C28.21 3.26 28.14 3.28 28.14 3.51ZM38.57 12.39C38.57 12.63 38.61 12.68 38.81 12.68C39.13 12.68 39.89 12.64 40.60 12.64C41.26 12.64 42.06 12.68 42.28 12.68C42.45 12.68 42.48 12.61 42.48 12.40C42.48 12.24 42.45 12.18 42.28 12.18L41.31 12.18C41.22 12.18 41.19 9.55 41.19 7.76L41.19 5.87C41.19 5.14 41.22 3.70 41.31 3.70L42.22 3.70C42.45 3.70 42.48 3.68 42.48 3.49C42.48 3.25 42.45 3.19 42.28 3.19C41.96 3.19 41.29 3.23 40.63 3.23C39.82 3.23 39.10 3.19 38.88 3.19C38.70 3.19 38.63 3.21 38.63 3.44C38.63 3.68 38.71 3.70 38.88 3.70L39.80 3.70C39.84 3.70 39.91 4.79 39.91 5.71L39.91 7.08C39.91 8.92 39.90 12.18 39.79 12.18L38.86 12.18C38.64 12.18 38.57 12.19 38.57 12.39Z"></path></g><defs data-v-423bf9ae=""><linearGradient data-v-423bf9ae="" gradientTransform="rotate(25)" id="63ef486e-c031-4071-9521-57ce92d567da" x1="0%" y1="0%" x2="100%" y2="0%"><stop data-v-423bf9ae="" offset="0%" style="stop-color: rgb(252, 183, 0); stop-opacity: 1;"></stop><stop data-v-423bf9ae="" offset="100%" style="stop-color: rgb(198, 198, 198); stop-opacity: 1;"></stop></linearGradient></defs><g data-v-423bf9ae="" id="2a60cd8d-49dc-42f2-95d4-19dc2775941e" transform="matrix(1.4045915603637695,0,0,1.4045915603637695,-7.987867832183838,-22.518024444580078)" stroke="none" fill="url(#63ef486e-c031-4071-9521-57ce92d567da)"><path d="M23.155 32.49c3.717-.034 9.7 3.014 11.816 6.058 1.798 2.586-11.11 8.292-12.904 9.392-1.372.841-.117 3.004 1.262 2.158 3.063-1.878 16.007-6.4 14.263-11.725-1.508-4.605-9.892-8.424-14.437-8.383-1.612.015-1.613 2.515 0 2.5zM37.866 49.541c6.396 1.065 12.813.335 19.252.273 1.611-.016 1.613-2.516 0-2.5-6.193.06-12.435.841-18.587-.184-1.577-.263-2.253 2.146-.665 2.411z"></path><path d="M8.568 19.726c12.068-1.004 24.169.572 36.261.001 12.201-.575 24.354-.729 36.557-1.075 4.287-.121 2.686 5.667 2.745 7.801.081 2.896.79 5.757.911 8.661.253 6.086.787 12.153 1.221 18.228.435 6.088.632 12.173.289 18.271-.231 4.105-1.723 4.318-5.211 4.073-2.78-.195-5.577-.109-8.362-.109-12.942 0-25.772.659-38.697 1.085-7.21.238-15.446 1.823-22.503.087-5.89-1.448-.708-22.463-.141-26.739 1.367-10.295 3.395-22.754-.268-32.778-.548-1.502-2.965-.854-2.41.664 4.513 12.352.567 27.88-.956 40.468-.595 4.919-4.42 18.246 2.366 20.544 7.712 2.611 17.816.455 25.828.191 15.017-.495 30.108-1.828 45.144-.913 2.39.146 5.945.536 6.992-2.316 2.046-5.579.96-13.034.663-18.849-.374-7.31-1.144-14.592-1.452-21.906-.138-3.282-.851-6.508-.942-9.787-.062-2.229.464-4.28-.013-6.5-.789-3.669-7.052-2.586-9.411-2.514-7.569.233-15.124-.084-22.694.332-7.709.424-15.351.933-23.078.696-7.629-.233-15.211-.75-22.836-.116-1.598.133-1.611 2.634-.003 2.5z"></path></g><!----></svg>